<mxfile host="app.diagrams.net" modified="2023-11-23T01:31:42.900Z" agent="Mozilla/5.0 (Windows NT 10.0; Win64; x64) AppleWebKit/537.36 (KHTML, like Gecko) Chrome/119.0.0.0 Safari/537.36" etag="q62ok7jKgWp-iuM6nqUL" version="22.1.3" type="github">
  <diagram name="페이지-1" id="dAERuMKoEwrv6sICbuZp">
    <mxGraphModel dx="1434" dy="907" grid="1" gridSize="10" guides="1" tooltips="1" connect="1" arrows="1" fold="1" page="1" pageScale="1" pageWidth="827" pageHeight="1169" math="0" shadow="0">
      <root>
        <mxCell id="0" />
        <mxCell id="1" parent="0" />
        <mxCell id="tFRFhLEIGB4tAB5JRY2U-1" value="" style="rounded=0;whiteSpace=wrap;html=1;" vertex="1" parent="1">
          <mxGeometry x="310" y="350" width="120" height="60" as="geometry" />
        </mxCell>
        <mxCell id="tFRFhLEIGB4tAB5JRY2U-2" value="" style="rhombus;whiteSpace=wrap;html=1;" vertex="1" parent="1">
          <mxGeometry x="530" y="340" width="80" height="80" as="geometry" />
        </mxCell>
        <mxCell id="tFRFhLEIGB4tAB5JRY2U-3" value="" style="ellipse;whiteSpace=wrap;html=1;" vertex="1" parent="1">
          <mxGeometry x="460" y="540" width="120" height="80" as="geometry" />
        </mxCell>
        <mxCell id="tFRFhLEIGB4tAB5JRY2U-4" value="" style="ellipse;whiteSpace=wrap;html=1;" vertex="1" parent="1">
          <mxGeometry x="280" y="460" width="120" height="80" as="geometry" />
        </mxCell>
      </root>
    </mxGraphModel>
  </diagram>
</mxfile>
